<?xml version="1.0" encoding="UTF-8" standalone="no"?>
<!-- Created with Inkscape (http://www.inkscape.org/) -->

<svg
   width="1024"
   height="1024"
   viewBox="0 0 270.93333 270.93334"
   version="1.1"
   id="svg291"
   inkscape:version="1.2 (dc2aedaf03, 2022-05-15)"
   sodipodi:docname="icon.svg"
   xmlns:inkscape="http://www.inkscape.org/namespaces/inkscape"
   xmlns:sodipodi="http://sodipodi.sourceforge.net/DTD/sodipodi-0.dtd"
   xmlns="http://www.w3.org/2000/svg"
   xmlns:svg="http://www.w3.org/2000/svg">
  <sodipodi:namedview
     id="namedview293"
     pagecolor="#ffffff"
     bordercolor="#666666"
     borderopacity="1.0"
     inkscape:pageshadow="2"
     inkscape:pageopacity="0.0"
     inkscape:pagecheckerboard="0"
     inkscape:document-units="px"
     showgrid="false"
     width="1920px"
     units="px"
     borderlayer="true"
     inkscape:showpageshadow="false"
     inkscape:deskcolor="#d1d1d1"
     inkscape:zoom="0.6180637"
     inkscape:cx="482.95992"
     inkscape:cy="496.71255"
     inkscape:window-width="2560"
     inkscape:window-height="1377"
     inkscape:window-x="2552"
     inkscape:window-y="-8"
     inkscape:window-maximized="1"
     inkscape:current-layer="layer1" />
  <defs
     id="defs288" />
  <g
     inkscape:label="Layer 1"
     inkscape:groupmode="layer"
     id="layer1">
    <g
       id="g2335"
       transform="matrix(11.494879,0,0,11.470401,-126.45659,228.7492)"
       style="stroke-width:1.07558">
      <path
         id="path9281"
         style="fill:#22534e;fill-opacity:1;stroke:none;stroke-width:0.853741;stroke-linecap:round;stroke-linejoin:round;stroke-dasharray:none;stroke-dashoffset:0.3;stroke-opacity:1;paint-order:normal"
         d="m 24.364404,-15.191919 a 1.7811118,1.7811118 0 0 0 -1.568379,0.938961 1.7811118,1.7811118 0 0 0 -1.557528,-0.918291 1.7811118,1.7811118 0 0 0 -1.383895,0.660942 c -1.816891,-1.243302 -4.115395,-0.49791 -5.162476,1.678967 l -2.844787,5.914368 c -1.050638,2.1842718 -0.431729,4.957652 1.388029,6.21874193 1.819758,1.26108987 4.130958,0.5177068 5.181596,-1.66656503 l 1.240234,-2.5786539 h 6.335531 l 1.240234,2.5786539 c 1.050638,2.18427183 3.361322,2.9276549 5.181079,1.66656503 C 34.2338,-1.95932 34.853226,-4.7327002 33.802588,-6.916972 L 30.9578,-12.83134 c -1.050637,-2.184271 -3.361838,-2.927654 -5.181596,-1.666565 -1.97e-4,1.37e-4 -3.19e-4,3.8e-4 -5.16e-4,5.17e-4 a 1.7811118,1.7811118 0 0 0 -1.411284,-0.694531 z" />
      <path
         id="rect2095"
         style="fill:#349684;fill-opacity:1;stroke:none;stroke-width:0.853741;stroke-linecap:round;stroke-linejoin:round;stroke-dasharray:none;stroke-dashoffset:0.3;stroke-opacity:1;paint-order:normal"
         d="m 24.364404,-16.012976 a 1.7811118,1.7811118 0 0 0 -1.568379,0.938961 1.7811118,1.7811118 0 0 0 -1.557528,-0.918291 1.7811118,1.7811118 0 0 0 -1.383895,0.660942 c -1.816891,-1.243302 -4.115395,-0.49791 -5.162476,1.678967 l -2.844787,5.914368 c -1.050638,2.1842718 -0.431729,4.957652 1.388029,6.2187419 1.819758,1.26108987 4.130958,0.5177068 5.181596,-1.666565 l 1.240234,-2.5786539 h 6.335531 l 1.240234,2.5786539 c 1.050638,2.1842718 3.361322,2.92765487 5.181079,1.666565 1.819758,-1.2610899 2.439184,-4.0344701 1.388546,-6.2187419 L 30.9578,-13.652397 c -1.050637,-2.184271 -3.361838,-2.927654 -5.181596,-1.666565 -1.97e-4,1.37e-4 -3.19e-4,3.8e-4 -5.16e-4,5.17e-4 a 1.7811118,1.7811118 0 0 0 -1.411284,-0.694531 z" />
      <rect
         style="fill:#ffffff;fill-opacity:1;stroke:none;stroke-width:1.4229;stroke-linecap:round;stroke-linejoin:round;stroke-dasharray:none;stroke-dashoffset:0.3;stroke-opacity:1;paint-order:markers stroke fill"
         id="rect2101"
         width="1.403165"
         height="4.2796535"
         x="17.394386"
         y="-13.427068"
         ry="0.75541198"
         rx="0.75380331" />
      <rect
         style="fill:#ffffff;fill-opacity:1;stroke:none;stroke-width:1.4229;stroke-linecap:round;stroke-linejoin:round;stroke-dasharray:none;stroke-dashoffset:0.3;stroke-opacity:1;paint-order:markers stroke fill"
         id="rect2103"
         width="1.403165"
         height="4.2796535"
         x="-11.988823"
         y="-20.235798"
         ry="0.75380331"
         rx="0.75541198"
         transform="rotate(90)" />
      <ellipse
         style="fill:#ffffff;fill-opacity:1;stroke:none;stroke-width:1.4229;stroke-linecap:round;stroke-linejoin:round;stroke-dasharray:none;stroke-dashoffset:0.3;stroke-opacity:1;paint-order:markers stroke fill"
         id="ellipse2105"
         cx="28.192503"
         cy="2.7587082"
         rx="0.82257289"
         ry="0.79261416"
         transform="rotate(-30)" />
      <ellipse
         style="fill:#ffffff;fill-opacity:1;stroke:none;stroke-width:1.4229;stroke-linecap:round;stroke-linejoin:round;stroke-dasharray:none;stroke-dashoffset:0.3;stroke-opacity:1;paint-order:markers stroke fill"
         id="ellipse2107"
         cx="28.216581"
         cy="4.7943339"
         rx="0.82257289"
         ry="0.79261416"
         transform="rotate(-30)" />
      <ellipse
         style="fill:#ffffff;fill-opacity:1;stroke:none;stroke-width:1.4229;stroke-linecap:round;stroke-linejoin:round;stroke-dasharray:none;stroke-dashoffset:0.3;stroke-opacity:1;paint-order:markers stroke fill"
         id="ellipse2109"
         cx="30.279696"
         cy="2.6987464"
         rx="0.82257289"
         ry="0.79261416"
         transform="rotate(-30)" />
      <ellipse
         style="fill:#ffffff;fill-opacity:1;stroke:none;stroke-width:1.4229;stroke-linecap:round;stroke-linejoin:round;stroke-dasharray:none;stroke-dashoffset:0.3;stroke-opacity:1;paint-order:markers stroke fill"
         id="ellipse2111"
         cx="30.320311"
         cy="4.767447"
         rx="0.82257289"
         ry="0.79261416"
         transform="rotate(-30)" />
      <rect
         style="fill:#ffffff;fill-opacity:1;stroke:none;stroke-width:1.4229;stroke-linecap:round;stroke-linejoin:round;stroke-dasharray:none;stroke-dashoffset:0.3;stroke-opacity:1;paint-order:markers stroke fill"
         id="rect2117"
         width="1.109892"
         height="2.1669323"
         x="22.090807"
         y="-10.531444"
         ry="0.52878839"
         rx="0.52766228" />
    </g>
  </g>
</svg>
