<?xml version="1.0" encoding="UTF-8" standalone="no"?>
<!-- Created with Inkscape (http://www.inkscape.org/) -->

<svg
   width="96"
   height="80"
   viewBox="0 0 25.399997 21.166664"
   version="1.1"
   id="svg291"
   inkscape:version="1.2 (dc2aedaf03, 2022-05-15)"
   sodipodi:docname="logo.svg"
   xmlns:inkscape="http://www.inkscape.org/namespaces/inkscape"
   xmlns:sodipodi="http://sodipodi.sourceforge.net/DTD/sodipodi-0.dtd"
   xmlns:xlink="http://www.w3.org/1999/xlink"
   xmlns="http://www.w3.org/2000/svg"
   xmlns:svg="http://www.w3.org/2000/svg">
  <sodipodi:namedview
     id="namedview293"
     pagecolor="#ffffff"
     bordercolor="#666666"
     borderopacity="1.0"
     inkscape:pageshadow="2"
     inkscape:pageopacity="0.0"
     inkscape:pagecheckerboard="0"
     inkscape:document-units="px"
     showgrid="false"
     width="200px"
     units="px"
     borderlayer="true"
     inkscape:showpageshadow="false"
     inkscape:zoom="4"
     inkscape:cx="10.375"
     inkscape:cy="54.5"
     inkscape:window-width="2560"
     inkscape:window-height="1377"
     inkscape:window-x="2552"
     inkscape:window-y="-8"
     inkscape:window-maximized="1"
     inkscape:current-layer="g14147"
     inkscape:snap-global="false"
     inkscape:deskcolor="#d1d1d1" />
  <defs
     id="defs288">
    <linearGradient
       inkscape:collect="always"
       id="linearGradient17174">
      <stop
         style="stop-color:#47b09d;stop-opacity:1;"
         offset="0"
         id="stop17170" />
      <stop
         style="stop-color:#349684;stop-opacity:1;"
         offset="1"
         id="stop17172" />
    </linearGradient>
    <linearGradient
       inkscape:collect="always"
       id="linearGradient16948">
      <stop
         style="stop-color:#ffffff;stop-opacity:0;"
         offset="0"
         id="stop16944" />
      <stop
         style="stop-color:#ffffff;stop-opacity:0.14444445;"
         offset="1"
         id="stop16946" />
    </linearGradient>
    <linearGradient
       inkscape:collect="always"
       id="linearGradient10478">
      <stop
         style="stop-color:#36edcf;stop-opacity:1"
         offset="0"
         id="stop10474" />
      <stop
         style="stop-color:#1accae;stop-opacity:1"
         offset="1"
         id="stop10476" />
    </linearGradient>
    <linearGradient
       inkscape:collect="always"
       xlink:href="#linearGradient10478"
       id="linearGradient10480"
       x1="48.326172"
       y1="3.5025482"
       x2="49.175781"
       y2="73.002548"
       gradientUnits="userSpaceOnUse"
       gradientTransform="matrix(0.51402501,0,0,0.51402501,83.759632,-0.11869253)" />
    <linearGradient
       inkscape:collect="always"
       xlink:href="#linearGradient16948"
       id="linearGradient17076"
       x1="9.079545"
       y1="22.019108"
       x2="8.7680998"
       y2="32.10685"
       gradientUnits="userSpaceOnUse" />
    <linearGradient
       inkscape:collect="always"
       xlink:href="#linearGradient16948"
       id="linearGradient17080"
       gradientUnits="userSpaceOnUse"
       x1="9.079545"
       y1="22.019108"
       x2="8.7680998"
       y2="32.10685"
       gradientTransform="translate(32.757785)" />
    <linearGradient
       inkscape:collect="always"
       xlink:href="#linearGradient17174"
       id="linearGradient17176"
       x1="25.610552"
       y1="22.145016"
       x2="32.774776"
       y2="22.145016"
       gradientUnits="userSpaceOnUse"
       spreadMethod="reflect" />
  </defs>
  <g
     inkscape:label="Layer 1"
     inkscape:groupmode="layer"
     id="layer1">
    <g
       id="g14147"
       transform="matrix(0.51472853,0,0,0.51472853,-0.51555466,0.06109443)"
       style="stroke-width:1.94278">
      <path
         id="path15043"
         style="fill:#2b6057;fill-opacity:1;stroke-width:10.2805;stroke-linecap:round;stroke-linejoin:round;paint-order:markers stroke fill"
         d="m 112.87232,0.22466011 c -1.55707,0.0173176 -2.86847,1.15063779 -3.00986,2.66148499 l -0.12549,1.3422879 h -4.36319 l -0.0944,-1.2669913 C 105.15993,1.3474869 103.70032,0.13892755 102.00652,0.25277086 L 99.198453,0.44251838 C 97.504648,0.55636187 96.237785,1.9468479 96.35726,3.5608029 c -0.0066,0.6318355 0.01291,1.2722933 0,1.855309 l 0.05823,0.7810769 C 95.582836,6.5695223 94.76255,6.9865122 93.964835,7.4461092 L 92.318349,5.4813689 C 91.258454,4.2173065 89.33698,4.0136363 88.010377,5.0235654 l -2.198661,1.6735934 c -1.036242,0.7888799 -1.208882,1.8755724 -1.175632,3.2367513 -0.01582,1.0529529 0.01701,1.9166529 0.693733,2.7237299 l 1.202738,1.434652 c -1.304085,1.937343 -2.091238,4.02583 -2.091238,6.142197 v 1.854305 9.658049 1.854304 c 0,5.831488 5.636278,10.991234 12.752238,13.550383 a 12.240222,14.296322 0 0 1 11.239275,-8.654094 12.240222,14.296322 0 0 1 11.27442,8.733406 c 7.32113,-2.602411 12.84761,-7.902729 12.84761,-13.629695 v -1.854304 -9.658049 -1.854305 c 0,-2.283967 -1.04365,-4.538298 -2.72975,-6.602009 l 1.05013,-1.226833 c 0.6921,-0.808862 0.73225,-1.524549 0.71281,-2.760876 -0.0314,-1.249197 -0.13195,-2.410528 -1.15153,-3.2026169 l -2.1816,-1.6956802 c -1.31604,-1.0223976 -3.24001,-0.83535 -4.31299,0.4186493 l -1.97378,2.3070887 c -1.05894,-0.5602955 -2.14747,-1.0606043 -3.24177,-1.490873 l 0.0452,-0.4839067 c 0.0447,-0.662131 0.028,-1.1808793 0,-1.855309 0.15082,-1.6115702 -1.08865,-3.0247753 -2.77995,-3.1684822 l -2.80405,-0.23793738 c -0.1057,-0.008986 -0.21143,-0.012198 -0.31524,-0.0110435 z" />
      <path
         id="rect843"
         style="fill:url(#linearGradient10480);fill-opacity:1;stroke-width:10.2805;stroke-linecap:round;stroke-linejoin:round;paint-order:markers stroke fill"
         d="m 112.74582,0.21361661 c -1.48544,0.0234034 -2.74197,1.16067729 -2.88336,2.67152449 l -0.12549,1.3432919 h -4.36419 l -0.0934,-1.2669913 C 105.1599,1.3474868 103.76378,0.13520668 102.14905,0.24373526 L 99.055891,0.45155397 C 97.441163,0.56008253 96.23678,1.9468479 96.356256,3.5608029 l 0.190752,2.5771527 C 95.66914,6.5246937 94.80454,6.9613836 93.964835,7.4451053 L 92.318349,5.4823728 C 91.258453,4.2183104 89.348022,4.0052622 88.035476,5.0044903 l -2.249863,1.7127474 c -1.312546,0.9992281 -1.515691,2.8210309 -0.455796,4.0850933 l 1.922574,2.293033 c -1.734353,2.206877 -2.811074,4.654198 -2.811074,7.138121 v 11.513358 c 0,5.773261 5.525299,10.885328 12.540403,13.470065 a 12.240222,14.296322 0 0 1 11.45111,-9.289597 12.240222,14.296322 0 0 1 11.49027,9.372925 c 7.21409,-2.628988 12.63076,-7.882524 12.63076,-13.553393 V 20.233485 c 0,-2.627354 -1.3791,-5.213608 -3.53091,-7.517616 l 1.85229,-2.165531 c 1.07299,-1.2539989 0.88768,-3.0786067 -0.41563,-4.0911167 l -2.22778,-1.7308186 c -1.30331,-1.0125098 -3.21692,-0.8172788 -4.2899,0.4367205 l -1.97378,2.3060848 c -1.11308,-0.5889385 -2.25853,-1.1137195 -3.40943,-1.5581383 l 0.21284,-2.2709465 c 0.15082,-1.6115703 -1.02559,-3.01839409 -2.63839,-3.15543079 l -3.08716,-0.26303625 c -0.1008,-0.008565 -0.20116,-0.0115998 -0.30019,-0.0100395 z" />
      <g
         id="g1840"
         transform="translate(82.758027,-0.89954377)">
        <circle
           style="fill:#2b6057;fill-opacity:1;stroke:none;stroke-width:1.54208;stroke-linecap:round;stroke-linejoin:round;paint-order:markers stroke fill"
           id="path1664"
           cx="37.304626"
           cy="18.514715"
           r="2.505872" />
        <circle
           style="fill:#2b6057;fill-opacity:1;stroke:none;stroke-width:1.54208;stroke-linecap:round;stroke-linejoin:round;paint-order:markers stroke fill"
           id="circle1746"
           cx="37.304626"
           cy="26.739117"
           r="2.505872" />
        <circle
           style="fill:#2b6057;fill-opacity:1;stroke:none;stroke-width:1.54208;stroke-linecap:round;stroke-linejoin:round;paint-order:markers stroke fill"
           id="circle1832"
           cx="22.626915"
           cy="-41.416828"
           r="2.505872"
           transform="rotate(90)" />
        <circle
           style="fill:#2b6057;fill-opacity:1;stroke:none;stroke-width:1.54208;stroke-linecap:round;stroke-linejoin:round;paint-order:markers stroke fill"
           id="circle1834"
           cx="22.626915"
           cy="-33.192425"
           r="2.505872"
           transform="rotate(90)" />
      </g>
      <path
         id="rect2138"
         style="fill:#2b6057;fill-opacity:1;stroke:none;stroke-width:1.54208;stroke-linecap:round;stroke-linejoin:round;paint-order:markers stroke fill"
         d="m 97.187472,15.595038 c -1.321054,0 -2.384729,1.063673 -2.384729,2.384728 v 1.154883 h -1.155968 c -1.321054,0 -2.383641,1.063673 -2.383641,2.384728 0,1.321055 1.062587,2.384729 2.383641,2.384729 h 1.155968 v 1.154881 c 0,1.321056 1.063675,2.384728 2.384729,2.384728 1.321055,0 2.384728,-1.063672 2.384728,-2.384728 v -1.154881 h 1.15488 c 1.32106,0 2.38473,-1.063674 2.38473,-2.384729 0,-1.321055 -1.06367,-2.384728 -2.38473,-2.384728 H 99.5722 v -1.154883 c 0,-1.321055 -1.063673,-2.384728 -2.384728,-2.384728 z" />
      <rect
         style="fill:#2b6057;fill-opacity:1;stroke:none;stroke-width:1.54208;stroke-linecap:round;stroke-linejoin:round;paint-order:markers stroke fill"
         id="rect3361"
         width="3.0895004"
         height="5.1340208"
         x="106.88808"
         y="25.827248"
         ry="1.5447502" />
      <path
         id="path4414"
         style="fill:#56f4da;fill-opacity:1;stroke:none;stroke-width:1.54208;stroke-linecap:round;stroke-linejoin:round;paint-order:markers stroke fill"
         d="m 108.43283,35.915618 a 11.50131,12.208093 0 0 0 -8.649071,4.173442 12.143841,12.348984 0 0 1 8.649071,-3.703591 12.143841,12.348984 0 0 1 8.58482,3.617251 11.50131,12.208093 0 0 0 -8.58482,-4.087102 z" />
      <g
         id="g2335"
         transform="matrix(2.1340846,0,0,2.1295401,-23.035447,34.562368)"
         style="stroke-width:1.07558">
        <path
           id="path9281"
           style="fill:#22534e;fill-opacity:1;stroke:none;stroke-width:0.853741;stroke-linecap:round;stroke-linejoin:round;stroke-dasharray:none;stroke-dashoffset:0.3;stroke-opacity:1;paint-order:normal"
           d="m 24.364404,-15.191919 a 1.7811118,1.7811118 0 0 0 -1.568379,0.938961 1.7811118,1.7811118 0 0 0 -1.557528,-0.918291 1.7811118,1.7811118 0 0 0 -1.383895,0.660942 c -1.816891,-1.243302 -4.115395,-0.49791 -5.162476,1.678967 l -2.844787,5.914368 c -1.050638,2.1842718 -0.431729,4.957652 1.388029,6.21874193 1.819758,1.26108987 4.130958,0.5177068 5.181596,-1.66656503 l 1.240234,-2.5786539 h 6.335531 l 1.240234,2.5786539 c 1.050638,2.18427183 3.361322,2.9276549 5.181079,1.66656503 C 34.2338,-1.95932 34.853226,-4.7327002 33.802588,-6.916972 L 30.9578,-12.83134 c -1.050637,-2.184271 -3.361838,-2.927654 -5.181596,-1.666565 -1.97e-4,1.37e-4 -3.19e-4,3.8e-4 -5.16e-4,5.17e-4 a 1.7811118,1.7811118 0 0 0 -1.411284,-0.694531 z" />
        <path
           id="rect2095"
           style="fill:#349684;fill-opacity:1;stroke:none;stroke-width:0.853741;stroke-linecap:round;stroke-linejoin:round;stroke-dasharray:none;stroke-dashoffset:0.3;stroke-opacity:1;paint-order:normal"
           d="m 24.364404,-16.012976 a 1.7811118,1.7811118 0 0 0 -1.568379,0.938961 1.7811118,1.7811118 0 0 0 -1.557528,-0.918291 1.7811118,1.7811118 0 0 0 -1.383895,0.660942 c -1.816891,-1.243302 -4.115395,-0.49791 -5.162476,1.678967 l -2.844787,5.914368 c -1.050638,2.1842718 -0.431729,4.957652 1.388029,6.2187419 1.819758,1.26108987 4.130958,0.5177068 5.181596,-1.666565 l 1.240234,-2.5786539 h 6.335531 l 1.240234,2.5786539 c 1.050638,2.1842718 3.361322,2.92765487 5.181079,1.666565 1.819758,-1.2610899 2.439184,-4.0344701 1.388546,-6.2187419 L 30.9578,-13.652397 c -1.050637,-2.184271 -3.361838,-2.927654 -5.181596,-1.666565 -1.97e-4,1.37e-4 -3.19e-4,3.8e-4 -5.16e-4,5.17e-4 a 1.7811118,1.7811118 0 0 0 -1.411284,-0.694531 z" />
        <path
           id="path17662"
           style="fill:#bbbbbb;fill-opacity:1;stroke:none;stroke-width:1.4229;stroke-linecap:round;stroke-linejoin:round;stroke-dasharray:none;stroke-dashoffset:0.3;stroke-opacity:1;paint-order:markers stroke fill"
           d="m 27.56597,-13.420908 a 0.79261416,0.82257289 60 0 0 -0.389993,0.113146 0.79261416,0.82257289 60 0 0 -0.316135,1.097517 0.79261416,0.82257289 60 0 0 1.108823,0.275323 0.79261416,0.82257289 60 0 0 0.316135,-1.097518 0.79261416,0.82257289 60 0 0 -0.71883,-0.388468 z m -9.469923,0.175376 c -0.388676,0 -0.701894,0.336753 -0.701894,0.755251 v 0.682648 h -0.684017 c -0.417607,0 -0.754112,0.31283 -0.754112,0.701506 0,0.388676 0.336505,0.701977 0.754112,0.701977 h 0.684017 v 0.6826496 c 0,0.4184979 0.313218,0.7552505 0.701894,0.7552505 0.388677,0 0.701424,-0.3367526 0.701424,-0.7552505 V -10.40415 h 0.684487 c 0.417607,0 0.753643,-0.313301 0.753643,-0.701977 0,-0.388676 -0.336036,-0.701506 -0.753643,-0.701506 h -0.684487 v -0.682648 c 0,-0.418498 -0.312747,-0.755251 -0.701424,-0.755251 z m 7.750471,0.919784 a 0.79261416,0.82257289 60 0 0 -0.447857,0.113618 0.79261416,0.82257289 60 0 0 -0.316135,1.097517 0.79261416,0.82257289 60 0 0 1.108353,0.275322 0.79261416,0.82257289 60 0 0 0.316134,-1.097989 0.79261416,0.82257289 60 0 0 -0.660495,-0.388468 z m 2.788758,0.676048 a 0.79261416,0.82257289 60 0 0 -0.389523,0.113146 0.79261416,0.82257289 60 0 0 -0.316134,1.097989 0.79261416,0.82257289 60 0 0 1.108352,0.274851 0.79261416,0.82257289 60 0 0 0.316135,-1.097518 0.79261416,0.82257289 60 0 0 -0.71883,-0.388468 z m -1.75003,1.074888 a 0.79261416,0.82257289 60 0 0 -0.448328,0.113618 0.79261416,0.82257289 60 0 0 -0.315664,1.0975183 0.79261416,0.82257289 60 0 0 1.108353,0.2753222 0.79261416,0.82257289 60 0 0 0.316134,-1.0979895 0.79261416,0.82257289 60 0 0 -0.660495,-0.388469 z m -4.280518,0.224878 c -0.285961,0.0072 -0.513719,0.240116 -0.513719,0.5284879 v 1.1093035 c 0,0.2929485 0.235037,0.5289582 0.527361,0.5289582 h 0.05457 c 0.292325,0 0.527832,-0.2360097 0.527832,-0.5289582 v -1.1093035 c 0,-0.2929489 -0.235507,-0.5284879 -0.527832,-0.5284879 h -0.05457 c -0.0046,0 -0.0091,-1.14e-4 -0.01364,0 z" />
        <path
           id="rect2101"
           style="fill:#ffffff;fill-opacity:1;stroke:none;stroke-width:1.4229;stroke-linecap:round;stroke-linejoin:round;stroke-dasharray:none;stroke-dashoffset:0.3;stroke-opacity:1;paint-order:markers stroke fill"
           d="m 27.56597,-13.602255 a 0.79261416,0.82257289 60 0 0 -0.389993,0.113146 0.79261416,0.82257289 60 0 0 -0.316135,1.097517 0.79261416,0.82257289 60 0 0 1.108823,0.275323 0.79261416,0.82257289 60 0 0 0.316135,-1.097518 0.79261416,0.82257289 60 0 0 -0.71883,-0.388468 z m -9.469923,0.175376 c -0.388676,0 -0.701894,0.336753 -0.701894,0.755251 v 0.682648 h -0.684017 c -0.417607,0 -0.754112,0.31283 -0.754112,0.701506 0,0.388676 0.336505,0.701977 0.754112,0.701977 h 0.684017 v 0.6826487 c 0,0.4184979 0.313218,0.7552505 0.701894,0.7552505 0.388677,0 0.701424,-0.3367526 0.701424,-0.7552505 v -0.6826487 h 0.684487 c 0.417607,0 0.753643,-0.313301 0.753643,-0.701977 0,-0.388676 -0.336036,-0.701506 -0.753643,-0.701506 h -0.684487 v -0.682648 c 0,-0.418498 -0.312747,-0.755251 -0.701424,-0.755251 z m 7.750471,0.919784 a 0.79261416,0.82257289 60 0 0 -0.447857,0.113618 0.79261416,0.82257289 60 0 0 -0.316135,1.097517 0.79261416,0.82257289 60 0 0 1.108353,0.275322 0.79261416,0.82257289 60 0 0 0.316134,-1.097989 0.79261416,0.82257289 60 0 0 -0.660495,-0.388468 z m 2.788758,0.676048 a 0.79261416,0.82257289 60 0 0 -0.389523,0.113146 0.79261416,0.82257289 60 0 0 -0.316134,1.097989 0.79261416,0.82257289 60 0 0 1.108352,0.274851 0.79261416,0.82257289 60 0 0 0.316135,-1.097518 0.79261416,0.82257289 60 0 0 -0.71883,-0.388468 z m -1.75003,1.074888 a 0.79261416,0.82257289 60 0 0 -0.448328,0.113618 0.79261416,0.82257289 60 0 0 -0.315664,1.0975174 0.79261416,0.82257289 60 0 0 1.108353,0.2753222 0.79261416,0.82257289 60 0 0 0.316134,-1.0979886 0.79261416,0.82257289 60 0 0 -0.660495,-0.388469 z m -4.280518,0.224878 c -0.285961,0.0072 -0.513719,0.240116 -0.513719,0.528487 v 1.1093035 c 0,0.2929485 0.235037,0.5289582 0.527361,0.5289582 h 0.05457 c 0.292325,0 0.527832,-0.2360097 0.527832,-0.5289582 v -1.1093035 c 0,-0.292948 -0.235507,-0.528487 -0.527832,-0.528487 h -0.05457 c -0.0046,0 -0.0091,-1.14e-4 -0.01364,0 z" />
      </g>
      <ellipse
         style="fill:url(#linearGradient17076);fill-opacity:1;stroke:none;stroke-width:1.24345;stroke-linecap:round;stroke-linejoin:round;stroke-dashoffset:0.3;stroke-opacity:1"
         id="path15776"
         cx="9.3093414"
         cy="25.392397"
         rx="7.2976403"
         ry="7.1558266" />
      <ellipse
         style="fill:url(#linearGradient17080);fill-opacity:1;stroke:none;stroke-width:1.24345;stroke-linecap:round;stroke-linejoin:round;stroke-dashoffset:0.3;stroke-opacity:1"
         id="ellipse17078"
         cx="42.067127"
         cy="25.392397"
         rx="7.2976403"
         ry="7.1558266" />
      <path
         style="fill:none;stroke:url(#linearGradient17176);stroke-width:0.514025px;stroke-linecap:round;stroke-linejoin:round;stroke-opacity:1"
         d="M 18.99248,22.145016 H 32.517763"
         id="path17145" />
    </g>
  </g>
</svg>
